<svg xmlns="http://www.w3.org/2000/svg" width="900" height="500" viewBox="0 0 900 500">
<rect width="900" height="500" fill="white"/>
<text x="450.0" y="32" text-anchor="middle" font-size="22" font-family="Arial" font-weight="bold">Criterion 1: CXR–ECG pair count by n</text>
<text x="450.0" y="58" text-anchor="middle" font-size="14" font-family="Arial" fill="#555">CXR at time t; ECG in [t-12-n, t-n].</text>
<line x1="85" y1="90" x2="85" y2="425" stroke="#333" stroke-width="1"/>
<line x1="85" y1="425" x2="865" y2="425" stroke="#333" stroke-width="1"/>
<line x1="85" y1="425.0" x2="865" y2="425.0" stroke="#e8e8e8" stroke-width="1"/>
<text x="75" y="429.0" text-anchor="end" font-size="12" font-family="Arial" fill="#555">0</text>
<line x1="85" y1="358.0" x2="865" y2="358.0" stroke="#e8e8e8" stroke-width="1"/>
<text x="75" y="362.0" text-anchor="end" font-size="12" font-family="Arial" fill="#555">19,248</text>
<line x1="85" y1="291.0" x2="865" y2="291.0" stroke="#e8e8e8" stroke-width="1"/>
<text x="75" y="295.0" text-anchor="end" font-size="12" font-family="Arial" fill="#555">38,497</text>
<line x1="85" y1="224.0" x2="865" y2="224.0" stroke="#e8e8e8" stroke-width="1"/>
<text x="75" y="228.0" text-anchor="end" font-size="12" font-family="Arial" fill="#555">57,746</text>
<line x1="85" y1="157.0" x2="865" y2="157.0" stroke="#e8e8e8" stroke-width="1"/>
<text x="75" y="161.0" text-anchor="end" font-size="12" font-family="Arial" fill="#555">76,994</text>
<line x1="85" y1="90.0" x2="865" y2="90.0" stroke="#e8e8e8" stroke-width="1"/>
<text x="75" y="94.0" text-anchor="end" font-size="12" font-family="Arial" fill="#555">96,243</text>
<rect x="85.0" y="133.695652173913" width="96.0" height="291.304347826087" rx="4" fill="#4C78A8"/>
<text x="133.0" y="125.695652173913" text-anchor="middle" font-size="12" font-family="Arial" fill="#333">83,690</text>
<text x="133.0" y="450" text-anchor="middle" font-size="13" font-family="Arial" fill="#333">n=0</text>
<rect x="199.0" y="295.4254313278299" width="96.0" height="129.57456867217007" rx="4" fill="#4C78A8"/>
<text x="247.0" y="287.4254313278299" text-anchor="middle" font-size="12" font-family="Arial" fill="#333">37,226</text>
<text x="247.0" y="450" text-anchor="middle" font-size="13" font-family="Arial" fill="#333">n=2</text>
<rect x="313.0" y="342.8855195415794" width="96.0" height="82.11448045842059" rx="4" fill="#4C78A8"/>
<text x="361.0" y="334.8855195415794" text-anchor="middle" font-size="12" font-family="Arial" fill="#333">23,591</text>
<text x="361.0" y="450" text-anchor="middle" font-size="13" font-family="Arial" fill="#333">n=4</text>
<rect x="427.0" y="354.4346631201068" width="96.0" height="70.5653368798932" rx="4" fill="#4C78A8"/>
<text x="475.0" y="346.4346631201068" text-anchor="middle" font-size="12" font-family="Arial" fill="#333">20,273</text>
<text x="475.0" y="450" text-anchor="middle" font-size="13" font-family="Arial" fill="#333">n=6</text>
<rect x="541.0" y="357.52209240104526" width="96.0" height="67.47790759895474" rx="4" fill="#4C78A8"/>
<text x="589.0" y="349.52209240104526" text-anchor="middle" font-size="12" font-family="Arial" fill="#333">19,386</text>
<text x="589.0" y="450" text-anchor="middle" font-size="13" font-family="Arial" fill="#333">n=8</text>
<rect x="655.0" y="358.01635954635896" width="96.0" height="66.98364045364103" rx="4" fill="#4C78A8"/>
<text x="703.0" y="350.01635954635896" text-anchor="middle" font-size="12" font-family="Arial" fill="#333">19,244</text>
<text x="703.0" y="450" text-anchor="middle" font-size="13" font-family="Arial" fill="#333">n=10</text>
<rect x="769.0" y="357.12180562843207" width="96.0" height="67.87819437156796" rx="4" fill="#4C78A8"/>
<text x="817.0" y="349.12180562843207" text-anchor="middle" font-size="12" font-family="Arial" fill="#333">19,501</text>
<text x="817.0" y="450" text-anchor="middle" font-size="13" font-family="Arial" fill="#333">n=12</text>
<text x="475.0" y="478" text-anchor="middle" font-size="14" font-family="Arial" fill="#333">n hours</text>
<text x="22" y="257.5" text-anchor="middle" font-size="14" font-family="Arial" fill="#333" transform="rotate(-90 22 257.5)">Pair count</text>
</svg>