<svg xmlns="http://www.w3.org/2000/svg" width="900" height="500" viewBox="0 0 900 500">
<rect width="900" height="500" fill="white"/>
<text x="450.0" y="32" text-anchor="middle" font-size="22" font-family="Arial" font-weight="bold">Criterion 2 earliest t1: pair count by n</text>
<text x="450.0" y="58" text-anchor="middle" font-size="14" font-family="Arial" fill="#555">For each t2, choose the earliest prior CXR t1 within [t2-24h, t2).</text>
<line x1="85" y1="90" x2="85" y2="425" stroke="#333" stroke-width="1"/>
<line x1="85" y1="425" x2="865" y2="425" stroke="#333" stroke-width="1"/>
<line x1="85" y1="425.0" x2="865" y2="425.0" stroke="#e8e8e8" stroke-width="1"/>
<text x="75" y="429.0" text-anchor="end" font-size="12" font-family="Arial" fill="#555">0</text>
<line x1="85" y1="358.0" x2="865" y2="358.0" stroke="#e8e8e8" stroke-width="1"/>
<text x="75" y="362.0" text-anchor="end" font-size="12" font-family="Arial" fill="#555">2,119</text>
<line x1="85" y1="291.0" x2="865" y2="291.0" stroke="#e8e8e8" stroke-width="1"/>
<text x="75" y="295.0" text-anchor="end" font-size="12" font-family="Arial" fill="#555">4,238</text>
<line x1="85" y1="223.99999999999997" x2="865" y2="223.99999999999997" stroke="#e8e8e8" stroke-width="1"/>
<text x="75" y="227.99999999999997" text-anchor="end" font-size="12" font-family="Arial" fill="#555">6,358</text>
<line x1="85" y1="157.0" x2="865" y2="157.0" stroke="#e8e8e8" stroke-width="1"/>
<text x="75" y="161.0" text-anchor="end" font-size="12" font-family="Arial" fill="#555">8,477</text>
<line x1="85" y1="90.0" x2="865" y2="90.0" stroke="#e8e8e8" stroke-width="1"/>
<text x="75" y="94.0" text-anchor="end" font-size="12" font-family="Arial" fill="#555">10,597</text>
<rect x="85.0" y="133.69565217391306" width="96.0" height="291.30434782608694" rx="4" fill="#4C78A8"/>
<text x="133.0" y="125.69565217391306" text-anchor="middle" font-size="12" font-family="Arial" fill="#333">9,215</text>
<text x="133.0" y="450" text-anchor="middle" font-size="13" font-family="Arial" fill="#333">n=0</text>
<rect x="199.0" y="202.4833093491236" width="96.0" height="222.5166906508764" rx="4" fill="#4C78A8"/>
<text x="247.0" y="194.4833093491236" text-anchor="middle" font-size="12" font-family="Arial" fill="#333">7,039</text>
<text x="247.0" y="450" text-anchor="middle" font-size="13" font-family="Arial" fill="#333">n=2</text>
<rect x="313.0" y="218.41574465073487" width="96.0" height="206.58425534926513" rx="4" fill="#4C78A8"/>
<text x="361.0" y="210.41574465073487" text-anchor="middle" font-size="12" font-family="Arial" fill="#333">6,535</text>
<text x="361.0" y="450" text-anchor="middle" font-size="13" font-family="Arial" fill="#333">n=4</text>
<rect x="427.0" y="230.3966831017481" width="96.0" height="194.6033168982519" rx="4" fill="#4C78A8"/>
<text x="475.0" y="222.3966831017481" text-anchor="middle" font-size="12" font-family="Arial" fill="#333">6,156</text>
<text x="475.0" y="450" text-anchor="middle" font-size="13" font-family="Arial" fill="#333">n=6</text>
<rect x="541.0" y="244.02144424261013" width="96.0" height="180.97855575738987" rx="4" fill="#4C78A8"/>
<text x="589.0" y="236.02144424261013" text-anchor="middle" font-size="12" font-family="Arial" fill="#333">5,725</text>
<text x="589.0" y="450" text-anchor="middle" font-size="13" font-family="Arial" fill="#333">n=8</text>
<rect x="655.0" y="259.9538795442214" width="96.0" height="165.0461204557786" rx="4" fill="#4C78A8"/>
<text x="703.0" y="251.95387954422142" text-anchor="middle" font-size="12" font-family="Arial" fill="#333">5,221</text>
<text x="703.0" y="450" text-anchor="middle" font-size="13" font-family="Arial" fill="#333">n=10</text>
<rect x="769.0" y="280.7861709405742" width="96.0" height="144.2138290594258" rx="4" fill="#4C78A8"/>
<text x="817.0" y="272.7861709405742" text-anchor="middle" font-size="12" font-family="Arial" fill="#333">4,562</text>
<text x="817.0" y="450" text-anchor="middle" font-size="13" font-family="Arial" fill="#333">n=12</text>
<text x="475.0" y="478" text-anchor="middle" font-size="14" font-family="Arial" fill="#333">n hours</text>
<text x="22" y="257.5" text-anchor="middle" font-size="14" font-family="Arial" fill="#333" transform="rotate(-90 22 257.5)">Pair count</text>
</svg>